<svg id="ar_lang" xmlns="http://www.w3.org/2000/svg" width="58.464" height="16" viewBox="0 0 58.464 16">
  <path id="Path_107" data-name="Path 107" d="M7.5,14.98V16H3.432a4.3,4.3,0,0,1-1.74-.288,1.785,1.785,0,0,1-.924-.948A4.672,4.672,0,0,1,.48,12.94a4.823,4.823,0,0,1,.276-1.806,1.767,1.767,0,0,1,.9-.96A4.1,4.1,0,0,1,3.372,9.88q.528,0,1.452.048t1.344.1V14.98ZM1.62,12.928a3.251,3.251,0,0,0,.186,1.224,1.167,1.167,0,0,0,.606.636,2.825,2.825,0,0,0,1.152.192H5.04v-4q-.96-.072-1.524-.072a2.636,2.636,0,0,0-1.122.2,1.173,1.173,0,0,0-.594.636A3.177,3.177,0,0,0,1.62,12.928ZM2.34,7.72H3.36V8.884H2.34Zm1.608,0H4.956V8.884H3.948Zm8.268,7.26V16H7.5V14.98H9.288V10h1.14v4.98ZM8.532,16.96h1.02v1.152H8.532Zm1.608,0h1.008v1.152H10.14Zm5-6.96v6H12.216V14.98H14V10Zm-1.1,6.96h1.092v1.176H14.04ZM21.072,16H19.416v.072a3.955,3.955,0,0,1-.492,2.166,1.659,1.659,0,0,1-1.488.75,5.459,5.459,0,0,1-.6-.036l-.288-.024V17.92q.4.036.648.036a.906.906,0,0,0,.816-.432,2.247,2.247,0,0,0,.276-1.212v-6.3h1.128V14.98h1.656Zm7.548-1.02V16H27.264a5.306,5.306,0,0,1-1.206-.144,5.891,5.891,0,0,1-1.158-.4,5.359,5.359,0,0,1-1.128.4A5.18,5.18,0,0,1,22.584,16H21.072V14.98h1.476a3.785,3.785,0,0,0,1.26-.228,5.922,5.922,0,0,1-1.4-1.554,3.293,3.293,0,0,1-.546-1.566l-.036-.912a7.385,7.385,0,0,1,1.506-.624,5.558,5.558,0,0,1,1.554-.228,5.684,5.684,0,0,1,1.566.228,7.586,7.586,0,0,1,1.53.624l-.048.912A3.293,3.293,0,0,1,27.39,13.2a5.837,5.837,0,0,1-1.41,1.554,3.889,3.889,0,0,0,1.272.228ZM22.98,11.3a2.9,2.9,0,0,0,.51,1.608,4.508,4.508,0,0,0,1.41,1.344,4.688,4.688,0,0,0,1.428-1.35,2.85,2.85,0,0,0,.516-1.6,5.869,5.869,0,0,0-1.944-.4A5.744,5.744,0,0,0,22.98,11.3Zm8.256-3.84V16H28.62V14.98H30.1V7.456Zm2.088,0h1.14V16h-1.14Z" transform="translate(24 -4.456)" fill="#ffde5c"/>
  <g id="ar_icon" transform="translate(-978 -19)">
    <path id="Path_105" data-name="Path 105" d="M8.984,10H4.9v.32a1.427,1.427,0,0,1-.244.78,1.821,1.821,0,0,1-.76.632,2.957,2.957,0,0,1-1.3.252,2.681,2.681,0,0,1-1.38-.3,1.685,1.685,0,0,1-.7-.72,1.922,1.922,0,0,1-.192-.808A7.619,7.619,0,0,1,.428,9.144q.108-.7.244-1.376L1.7,7.824A18.73,18.73,0,0,0,1.36,9.952a1.09,1.09,0,0,0,.12.484.983.983,0,0,0,.4.408,1.371,1.371,0,0,0,.708.164,1.488,1.488,0,0,0,.672-.14A1.031,1.031,0,0,0,3.68,10.5a.891.891,0,0,0,.144-.484V6H4.9V7.28a7.723,7.723,0,0,1,.652-.728A2.4,2.4,0,0,1,6.232,6.1a2.187,2.187,0,0,1,.9-.176,1.6,1.6,0,0,1,1.428.62,2.527,2.527,0,0,1,.42,1.452Zm-2.1-3.1a1.588,1.588,0,0,0-1.108.532A4.523,4.523,0,0,0,4.9,8.656v.368H7.912V8.2a1.562,1.562,0,0,0-.268-.924A.871.871,0,0,0,6.888,6.9Zm-.816-2.68h.984v1.04H6.072Z" transform="translate(981.68 18.784)" fill="#ffde5c"/>
    <g id="Rectangle_60" data-name="Rectangle 60" transform="translate(978 19)" fill="none" stroke="#ffde5c" stroke-width="1">
      <rect width="16" height="16" stroke="none"/>
      <rect x="0.5" y="0.5" width="15" height="15" fill="none"/>
    </g>
  </g>
</svg>
