<svg id="english_lang" xmlns="http://www.w3.org/2000/svg" width="60.13" height="16" viewBox="0 0 60.13 16">
  <g id="en_icon" transform="translate(-970.87 -19)">
    <g id="Rectangle_61" data-name="Rectangle 61" transform="translate(1015 19)" fill="none" stroke="#ffde5c" stroke-width="1">
      <rect width="16" height="16" stroke="none"/>
      <rect x="0.5" y="0.5" width="15" height="15" fill="none"/>
    </g>
    <path id="Path_106" data-name="Path 106" d="M5,6.96V8H.664V2.4H4.9V3.44H1.952V4.656h2.6V5.664h-2.6v1.3ZM8.56,3.632a1.771,1.771,0,0,1,1.292.48,1.9,1.9,0,0,1,.492,1.424V8H9.1V5.728a1.122,1.122,0,0,0-.224-.764.821.821,0,0,0-.648-.252A.993.993,0,0,0,7.472,5a1.209,1.209,0,0,0-.28.868V8H5.944V3.7H7.136v.5a1.655,1.655,0,0,1,.616-.42A2.146,2.146,0,0,1,8.56,3.632Z" transform="translate(1017.336 21.6)" fill="#ffde5c"/>
  </g>
  <path id="Path_116" data-name="Path 116" d="M6.29,8.7V10H.87V3H6.16V4.3H2.48V5.82H5.73V7.08H2.48V8.7Zm4.45-4.16a2.214,2.214,0,0,1,1.615.6,2.379,2.379,0,0,1,.615,1.78V10H11.41V7.16a1.4,1.4,0,0,0-.28-.955,1.027,1.027,0,0,0-.81-.315,1.241,1.241,0,0,0-.94.365A1.511,1.511,0,0,0,9.03,7.34V10H7.47V4.62H8.96v.63a2.069,2.069,0,0,1,.77-.525A2.683,2.683,0,0,1,10.74,4.54Zm9.25.08V9.1a2.875,2.875,0,0,1-.77,2.2,3.179,3.179,0,0,1-2.25.72,5.627,5.627,0,0,1-1.48-.19,3.236,3.236,0,0,1-1.16-.55l.62-1.12a2.552,2.552,0,0,0,.86.445,3.422,3.422,0,0,0,1.04.165,1.687,1.687,0,0,0,1.2-.365,1.455,1.455,0,0,0,.385-1.1V9.07a2.183,2.183,0,0,1-1.7.67,2.855,2.855,0,0,1-1.355-.325A2.477,2.477,0,0,1,14.4,8.5a2.558,2.558,0,0,1-.36-1.36,2.558,2.558,0,0,1,.36-1.36,2.477,2.477,0,0,1,.975-.915A2.855,2.855,0,0,1,16.73,4.54a2.135,2.135,0,0,1,1.78.77V4.62ZM17.04,8.46A1.437,1.437,0,0,0,18.055,8.1a1.24,1.24,0,0,0,.395-.955,1.24,1.24,0,0,0-.395-.955A1.437,1.437,0,0,0,17.04,5.82a1.455,1.455,0,0,0-1.02.365,1.232,1.232,0,0,0-.4.955,1.232,1.232,0,0,0,.4.955A1.455,1.455,0,0,0,17.04,8.46Zm4.4-5.88H23V10H21.44Zm3.01,2.04h1.56V10H24.45Zm.78-.75a.989.989,0,0,1-.7-.25A.811.811,0,0,1,24.26,3a.811.811,0,0,1,.27-.62.989.989,0,0,1,.7-.25,1.014,1.014,0,0,1,.7.24.77.77,0,0,1,.27.6.849.849,0,0,1-.27.645A.978.978,0,0,1,25.23,3.87Zm4.04,6.21a5.226,5.226,0,0,1-1.31-.165A3.423,3.423,0,0,1,26.94,9.5l.52-1.12a3.273,3.273,0,0,0,.87.375,3.646,3.646,0,0,0,1,.145q.99,0,.99-.49a.347.347,0,0,0-.27-.33,4,4,0,0,0-.83-.17,8.007,8.007,0,0,1-1.09-.23,1.691,1.691,0,0,1-.745-.46,1.308,1.308,0,0,1-.315-.94,1.472,1.472,0,0,1,.3-.905,1.9,1.9,0,0,1,.86-.615,3.673,3.673,0,0,1,1.335-.22,5.239,5.239,0,0,1,1.135.125,3.173,3.173,0,0,1,.935.345l-.52,1.11a3.1,3.1,0,0,0-1.55-.4,1.577,1.577,0,0,0-.75.14.412.412,0,0,0-.25.36.357.357,0,0,0,.27.35,4.78,4.78,0,0,0,.86.19,9.206,9.206,0,0,1,1.08.235,1.622,1.622,0,0,1,.73.455,1.291,1.291,0,0,1,.31.92,1.421,1.421,0,0,1-.3.89,1.915,1.915,0,0,1-.875.6A3.9,3.9,0,0,1,29.27,10.08Zm6.77-5.54a2.214,2.214,0,0,1,1.615.6,2.379,2.379,0,0,1,.615,1.78V10H36.71V7.16a1.4,1.4,0,0,0-.28-.955,1.027,1.027,0,0,0-.81-.315,1.241,1.241,0,0,0-.94.365,1.511,1.511,0,0,0-.35,1.085V10H32.77V2.58h1.56v2.6a2.075,2.075,0,0,1,.75-.475A2.713,2.713,0,0,1,36.04,4.54Z" transform="translate(-0.87 0.87)" fill="#ffde5c"/>
</svg>
