<svg xmlns="http://www.w3.org/2000/svg" width="30" height="30" viewBox="0 0 30 30">
  <g id="instegram_footer" transform="translate(-624 -5407)">
    <path id="_-instagram" data-name="-instagram" d="M7.5,5.891a3.845,3.845,0,1,0,3.845,3.845A3.839,3.839,0,0,0,7.5,5.891Zm0,6.345a2.5,2.5,0,1,1,2.5-2.5A2.5,2.5,0,0,1,7.5,12.236Zm4.9-6.5a.9.9,0,1,1-.9-.9A.895.895,0,0,1,12.4,5.734Zm2.547.91A4.438,4.438,0,0,0,13.731,3.5,4.467,4.467,0,0,0,10.588,2.29c-1.238-.07-4.949-.07-6.187,0A4.461,4.461,0,0,0,1.259,3.5,4.453,4.453,0,0,0,.047,6.641c-.07,1.238-.07,4.949,0,6.187A4.438,4.438,0,0,0,1.259,15.97,4.473,4.473,0,0,0,4.4,17.182c1.238.07,4.949.07,6.187,0a4.438,4.438,0,0,0,3.142-1.211,4.467,4.467,0,0,0,1.211-3.142c.07-1.238.07-4.946,0-6.184Zm-1.6,7.513a2.531,2.531,0,0,1-1.426,1.426,16.528,16.528,0,0,1-4.421.3,16.656,16.656,0,0,1-4.421-.3A2.531,2.531,0,0,1,1.65,14.157a16.528,16.528,0,0,1-.3-4.421,16.656,16.656,0,0,1,.3-4.421A2.531,2.531,0,0,1,3.076,3.89a16.528,16.528,0,0,1,4.421-.3,16.656,16.656,0,0,1,4.421.3,2.531,2.531,0,0,1,1.426,1.426,16.528,16.528,0,0,1,.3,4.421A16.518,16.518,0,0,1,13.342,14.157Z" transform="translate(632.005 5412.762)" fill="#ffde5c"/>
    <g id="Rectangle_118" data-name="Rectangle 118" transform="translate(624 5407)" fill="none" stroke="#ffde5c" stroke-width="1">
      <rect width="30" height="30" stroke="none"/>
      <rect x="0.5" y="0.5" width="29" height="29" fill="none"/>
    </g>
  </g>
</svg>
