<svg xmlns="http://www.w3.org/2000/svg" width="20" height="20" viewBox="0 0 20 20">
  <g id="instegram-upper" transform="translate(-188 -12)">
    <g id="Rectangle_64" data-name="Rectangle 64" transform="translate(188 12)" fill="none" stroke="#ffde5c" stroke-width="1">
      <rect width="20" height="20" stroke="none"/>
      <rect x="0.5" y="0.5" width="19" height="19" fill="none"/>
    </g>
    <path id="Icon_awesome-instagram" data-name="Icon awesome-instagram" d="M5.5,4.917a2.82,2.82,0,1,0,2.82,2.82A2.815,2.815,0,0,0,5.5,4.917Zm0,4.653A1.833,1.833,0,1,1,7.329,7.736,1.836,1.836,0,0,1,5.5,9.57ZM9.089,4.8a.658.658,0,1,1-.658-.658A.656.656,0,0,1,9.089,4.8Zm1.867.667a3.255,3.255,0,0,0-.888-2.3,3.276,3.276,0,0,0-2.3-.888c-.908-.052-3.629-.052-4.537,0a3.271,3.271,0,0,0-2.3.886,3.265,3.265,0,0,0-.888,2.3C-.018,6.375-.018,9.1.033,10a3.255,3.255,0,0,0,.888,2.3,3.28,3.28,0,0,0,2.3.888c.908.052,3.629.052,4.537,0a3.255,3.255,0,0,0,2.3-.888,3.276,3.276,0,0,0,.888-2.3c.052-.908.052-3.627,0-4.535ZM9.783,10.978a1.856,1.856,0,0,1-1.045,1.045,12.12,12.12,0,0,1-3.242.221,12.215,12.215,0,0,1-3.242-.221,1.856,1.856,0,0,1-1.045-1.045A12.12,12.12,0,0,1,.988,7.736a12.215,12.215,0,0,1,.221-3.242A1.856,1.856,0,0,1,2.254,3.449,12.12,12.12,0,0,1,5.5,3.228a12.215,12.215,0,0,1,3.242.221A1.856,1.856,0,0,1,9.783,4.495,12.12,12.12,0,0,1,10,7.736,12.113,12.113,0,0,1,9.783,10.978Z" transform="translate(192.407 14.757)" fill="#ffde5c"/>
  </g>
</svg>
