<svg xmlns="http://www.w3.org/2000/svg" width="32" height="32" viewBox="0 0 32 32">
  <g id="instegram-sticky" transform="translate(0.21 0.211)">
    <g id="Rectangle_64" data-name="Rectangle 64" transform="translate(-0.21 -0.211)" fill="none" stroke="#1e2611" stroke-width="2">
      <rect width="32" height="32" stroke="none"/>
      <rect x="1" y="1" width="30" height="30" fill="none"/>
    </g>
    <path id="Icon_awesome-instagram" data-name="Icon awesome-instagram" d="M8.681,6.468a4.452,4.452,0,1,0,4.452,4.452A4.445,4.445,0,0,0,8.681,6.468Zm0,7.346a2.894,2.894,0,1,1,2.894-2.894A2.9,2.9,0,0,1,8.681,13.814Zm5.673-7.529a1.038,1.038,0,1,1-1.038-1.038A1.036,1.036,0,0,1,14.353,6.286ZM17.3,7.34A5.139,5.139,0,0,0,15.9,3.7a5.173,5.173,0,0,0-3.638-1.4c-1.434-.081-5.731-.081-7.164,0A5.165,5.165,0,0,0,1.458,3.7a5.156,5.156,0,0,0-1.4,3.638c-.081,1.434-.081,5.731,0,7.164a5.139,5.139,0,0,0,1.4,3.638,5.179,5.179,0,0,0,3.638,1.4c1.434.081,5.731.081,7.164,0a5.139,5.139,0,0,0,3.638-1.4A5.173,5.173,0,0,0,17.3,14.5c.081-1.434.081-5.727,0-7.16Zm-1.852,8.7A2.93,2.93,0,0,1,13.8,17.689c-1.143.453-3.855.349-5.119.349s-3.979.1-5.119-.349a2.93,2.93,0,0,1-1.651-1.651c-.453-1.143-.349-3.855-.349-5.118s-.1-3.979.349-5.119A2.93,2.93,0,0,1,3.562,4.151C4.705,3.7,7.418,3.8,8.681,3.8s3.979-.1,5.119.349A2.93,2.93,0,0,1,15.45,5.8c.453,1.143.349,3.855.349,5.119S15.9,14.9,15.45,16.038Z" transform="translate(6.955 5.649)" fill="#1e2611"/>
  </g>
</svg>
