<svg xmlns="http://www.w3.org/2000/svg" width="30" height="30" viewBox="0 0 30 30">
  <g id="linkedIn-footer-icon" transform="translate(-587 -5407)">
    <path id="linkedin" d="M3.358,15H.248V4.986h3.11ZM1.8,3.62A1.81,1.81,0,1,1,3.6,1.8,1.816,1.816,0,0,1,1.8,3.62ZM15,15h-3.1V10.125c0-1.162-.023-2.652-1.617-2.652-1.617,0-1.865,1.262-1.865,2.568V15H5.306V4.986H8.288V6.352h.044a3.268,3.268,0,0,1,2.942-1.617C14.421,4.735,15,6.807,15,9.5V15Z" transform="translate(595 5415)" fill="#ffde5c"/>
    <g id="Rectangle_117" data-name="Rectangle 117" transform="translate(587 5407)" fill="none" stroke="#ffde5c" stroke-width="1">
      <rect width="30" height="30" stroke="none"/>
      <rect x="0.5" y="0.5" width="29" height="29" fill="none"/>
    </g>
  </g>
</svg>
