<svg xmlns="http://www.w3.org/2000/svg" width="60" height="60" viewBox="0 0 60 60">
  <g id="loader_icon" transform="translate(-206 -2334)">
    <g id="Ellipse_2" data-name="Ellipse 2" transform="translate(206 2334)" fill="#1e2611" stroke="#ffde5c" stroke-width="1">
      <circle cx="30" cy="30" r="30" stroke="none"/>
      <circle cx="30" cy="30" r="29.5" fill="none"/>
    </g>
    <path id="Path_70" data-name="Path 70" d="M146.073,240.422h.457l14.641-2.841v-.011h.055l1.374-.266.022,0h2.593l.073.056,4.023,3.068h.142l1.169.823-1.169.823h-1.6v.89l.026.057-.026.057v10.775l.026.057-.026.057v5.289H174.5v6.725h-18.74v-6.725h5.415V242.068H147.329v13.456h-.721V242.068h-.535l-1.169-.823,1.169-.823Zm.457,15.512a.307.307,0,0,0-.306.306v.97a.307.307,0,0,0,.306.307h.878a.307.307,0,0,0,.306-.307v-.97a.307.307,0,0,0-.306-.306Zm.89,1.992h-.855v.256a.409.409,0,0,0,.218.341,3.384,3.384,0,0,0,.528.253.9.9,0,0,1,.218,1.478,1.216,1.216,0,0,1-1.394.133c-.409-.222-.541-.634-.6-.589-.195.156-.063.832.406,1.263a1.757,1.757,0,0,0,2.773-1.994c-.3-.749-.793-.787-1.22-1.057a.208.208,0,0,1-.078-.084Zm11.93,7.68-3.2-3.346v2.391l.915.956Zm4.895,0-5.737-5.99h-2.29l5.737,5.99Zm4.894,0-5.737-5.99h-2.289l5.737,5.99Zm4.895,0-5.737-5.99h-2.289l5.737,5.99Zm.073-5.034-.915-.956H170.9l3.205,3.346v-2.391Zm-11.7-1.323v-5.288l-.026-.057.026-.058V243.072l-.026-.058.026-.057v-.889h-.381v17.181Zm.545,0h1.836l-1.836-4.079v4.079Zm2.521,0H167.3v-4.079l-1.836,4.079Zm-4.3-18.827v-2.288l-11.788,2.288Zm.851-2.453v2.453h1.522l1.162-2.581H162.68l-.658.128Zm5.283,6.312-1.693,3.763H167.3v-3.763Zm0,4.307h-1.822l1.822,4.049v-4.049Zm-4.357,4.049,1.823-4.049h-1.823v4.049Zm0-4.593h1.694l-1.694-3.763v3.763Zm3.9-5.976H163.4l-.426.946,2.153,4.782,2.153-4.782-.426-.946Zm-1.037-3.628.892,1.982h1.707l-2.6-1.982Zm.3,1.982-.986-2.19-.986,2.19ZM163.1,254.178l2.029,4.509h0l2.03-4.509Zm4.06-.545-2.031-4.512-2.031,4.512Z" transform="translate(76.041 2112.363)" fill="#ffde5c" fill-rule="evenodd"/>
  </g>
</svg>
