<svg xmlns="http://www.w3.org/2000/svg" width="30" height="30" viewBox="0 0 30 30">
  <g id="mapIcon" transform="translate(-160 -5240)">
    <g id="Rectangle_116" data-name="Rectangle 116" transform="translate(160 5240)" fill="none" stroke="#ffde5c" stroke-width="1">
      <rect width="30" height="30" stroke="none"/>
      <rect x="0.5" y="0.5" width="29" height="29" fill="none"/>
    </g>
    <path id="map" d="M15.879,2.055a.289.289,0,0,0-.262-.04L10.459,3.734,5.594,2.589a.253.253,0,0,0-.036,0,.3.3,0,0,0-.093,0L.228,3.752A.291.291,0,0,0,0,4.036V16.545a.291.291,0,0,0,.291.291.31.31,0,0,0,.063-.007l5.18-1.151,4.888.863a.271.271,0,0,0,.051,0,.292.292,0,0,0,.1-.019h0l5.236-2.036A.292.292,0,0,0,16,14.218V2.291A.291.291,0,0,0,15.879,2.055ZM.582,4.269,5.236,3.235V15.148L.582,16.183ZM5.818,3.24l4.364,1.027V15.907l-4.364-.77Zm9.6,10.779-4.655,1.81V4.246l4.655-1.551Z" transform="translate(167 5246)" fill="#ffde5c"/>
  </g>
</svg>
