<svg xmlns="http://www.w3.org/2000/svg" width="30" height="30" viewBox="0 0 30 30">
  <g id="phoneIcon" transform="translate(-160 -5348)">
    <path id="Icon_feather-phone-call" data-name="Icon feather-phone-call" d="M13.078,4.564A3.83,3.83,0,0,1,16.1,7.59M13.078,1.5a6.894,6.894,0,0,1,6.09,6.082M18.4,13.694v2.3a1.532,1.532,0,0,1-1.67,1.532,15.159,15.159,0,0,1-6.61-2.352,14.937,14.937,0,0,1-4.6-4.6A15.159,15.159,0,0,1,3.174,3.936,1.532,1.532,0,0,1,4.7,2.266H7A1.532,1.532,0,0,1,8.528,3.583a9.835,9.835,0,0,0,.536,2.152A1.532,1.532,0,0,1,8.72,7.352l-.973.973a12.256,12.256,0,0,0,4.6,4.6l.973-.973a1.532,1.532,0,0,1,1.616-.345,9.835,9.835,0,0,0,2.152.536A1.532,1.532,0,0,1,18.4,13.694Z" transform="translate(163.833 5353)" fill="none" stroke="#ffde5c" stroke-linecap="round" stroke-linejoin="round" stroke-width="1"/>
    <g id="Rectangle_113" data-name="Rectangle 113" transform="translate(160 5348)" fill="none" stroke="#ffde5c" stroke-width="1">
      <rect width="30" height="30" stroke="none"/>
      <rect x="0.5" y="0.5" width="29" height="29" fill="none"/>
    </g>
  </g>
</svg>
