<svg xmlns="http://www.w3.org/2000/svg" width="20.857" height="23" viewBox="0 0 20.857 23">
  <path id="sticky-email-icon" d="M22.512,10.615a11.862,11.862,0,0,1-.382,2.573,7.445,7.445,0,0,1-1,2.259,5.278,5.278,0,0,1-1.7,1.605,4.786,4.786,0,0,1-2.476.611,3.59,3.59,0,0,1-1.791-.438,3.067,3.067,0,0,1-1.21-1.24,3.836,3.836,0,0,1-3.245,1.63,3.3,3.3,0,0,1-2.833-1.523,4.987,4.987,0,0,1-.7-1.765,7.612,7.612,0,0,1-.092-2.3,10.7,10.7,0,0,1,.7-2.82,7.665,7.665,0,0,1,1.3-2.16,5.484,5.484,0,0,1,1.782-1.377,4.973,4.973,0,0,1,2.167-.481,6.739,6.739,0,0,1,1.3.111,5.306,5.306,0,0,1,1.006.3,5.44,5.44,0,0,1,.834.44c.254.164.51.333.765.506l-.63,7.244a2.408,2.408,0,0,0,.019.848,1.186,1.186,0,0,0,.259.523.931.931,0,0,0,.42.273,1.558,1.558,0,0,0,1.475-.29,3.143,3.143,0,0,0,.79-1.006,6.479,6.479,0,0,0,.532-1.512,10.374,10.374,0,0,0,.233-1.883,12.032,12.032,0,0,0-.3-3.518,6.994,6.994,0,0,0-1.3-2.722A6.046,6.046,0,0,0,16.1,2.747a8.472,8.472,0,0,0-3.4-.622,7.508,7.508,0,0,0-3.363.733A7.716,7.716,0,0,0,6.776,4.889,9.753,9.753,0,0,0,5.1,7.946a13.776,13.776,0,0,0-.7,3.809,12.665,12.665,0,0,0,.359,3.886,7.019,7.019,0,0,0,1.42,2.785A5.926,5.926,0,0,0,8.584,20.1a9.229,9.229,0,0,0,3.32.555,11.371,11.371,0,0,0,2.179-.234c.359-.072.7-.158,1.025-.253a7.712,7.712,0,0,0,.882-.316l.456,2.049a5.058,5.058,0,0,1-.987.489,9.5,9.5,0,0,1-1.167.338A11.387,11.387,0,0,1,11.854,23a12.783,12.783,0,0,1-4.444-.716,8.179,8.179,0,0,1-3.24-2.13,8.945,8.945,0,0,1-1.945-3.517,15,15,0,0,1-.543-4.882A14.89,14.89,0,0,1,2.617,7.07,11.6,11.6,0,0,1,4.867,3.347,10.256,10.256,0,0,1,8.3.891,10.75,10.75,0,0,1,12.748,0a11.223,11.223,0,0,1,4.309.772,8.381,8.381,0,0,1,3.11,2.17A8.906,8.906,0,0,1,22.012,6.3,12.821,12.821,0,0,1,22.512,10.615ZM10.169,12.024a4.889,4.889,0,0,0,.253,2.425,1.3,1.3,0,0,0,1.25.819,1.381,1.381,0,0,0,.428-.079,1.527,1.527,0,0,0,.493-.3,2.631,2.631,0,0,0,.5-.6,4.633,4.633,0,0,0,.46-1.02l.492-5.628a2.937,2.937,0,0,0-.765-.1,2.644,2.644,0,0,0-1.272.292,2.518,2.518,0,0,0-.9.857,5.03,5.03,0,0,0-.6,1.408,11.948,11.948,0,0,0-.339,1.926Z" transform="translate(-1.67)"/>
</svg>
