<svg xmlns="http://www.w3.org/2000/svg" width="23" height="22.998" viewBox="0 0 23 22.998">
  <g id="Page-1" transform="translate(0.003)">
    <g id="_003---Call" data-name="003---Call" transform="translate(-0.003)">
      <path id="Shape" d="M10.521,13.511a9.282,9.282,0,0,1-2.8-5.27.788.788,0,0,1,.226-.66L9.722,5.806a.793.793,0,0,0,.112-.981L7,.432A.793.793,0,0,0,5.978.143L1.437,2.282A.789.789,0,0,0,1,3.07,21.949,21.949,0,0,0,7.684,16.347,21.942,21.942,0,0,0,20.961,23.03a.789.789,0,0,0,.788-.436l2.138-4.541a.793.793,0,0,0-.287-1.026L19.208,14.2a.793.793,0,0,0-.981.111l-1.776,1.776a.788.788,0,0,1-.66.226A9.282,9.282,0,0,1,10.521,13.511Z" transform="translate(-0.997 -0.036)" fill="#1e2611"/>
      <path id="Shape-2" data-name="Shape" d="M35.534,18.327a.793.793,0,0,1-.793-.793,5.955,5.955,0,0,0-5.948-5.948.793.793,0,0,1,0-1.586,7.542,7.542,0,0,1,7.534,7.534A.793.793,0,0,1,35.534,18.327Z" transform="translate(-17.292 -6.035)" fill="#1e2611"/>
      <path id="Shape-3" data-name="Shape" d="M39.5,12.292a.793.793,0,0,1-.793-.793,9.924,9.924,0,0,0-9.913-9.913.793.793,0,0,1,0-1.586,11.512,11.512,0,0,1,11.5,11.5.793.793,0,0,1-.793.793Z" transform="translate(-17.292 0)" fill="#1e2611"/>
    </g>
  </g>
</svg>
