<svg xmlns="http://www.w3.org/2000/svg" width="22.917" height="25" viewBox="0 0 22.917 25">
  <g id="share" transform="translate(0 0)">
    <path id="Path_108" data-name="Path 108" d="M321.439,19.385A3.385,3.385,0,1,1,318.053,16,3.385,3.385,0,0,1,321.439,19.385Zm0,0" transform="translate(-299.303 -15.219)" fill="#1e2611"/>
    <path id="Path_109" data-name="Path 109" d="M302.835,8.333A4.167,4.167,0,1,1,307,4.167,4.171,4.171,0,0,1,302.835,8.333Zm0-6.771a2.6,2.6,0,1,0,2.6,2.6,2.607,2.607,0,0,0-2.6-2.6Zm0,0" transform="translate(-284.085 0)" fill="#1e2611"/>
    <path id="Path_110" data-name="Path 110" d="M321.439,360.718a3.385,3.385,0,1,1-3.385-3.386A3.385,3.385,0,0,1,321.439,360.718Zm0,0" transform="translate(-299.303 -339.884)" fill="#1e2611"/>
    <path id="Path_111" data-name="Path 111" d="M302.835,349.665A4.167,4.167,0,1,1,307,345.5,4.171,4.171,0,0,1,302.835,349.665Zm0-6.771a2.6,2.6,0,1,0,2.6,2.6A2.607,2.607,0,0,0,302.835,342.895Zm0,0" transform="translate(-284.085 -324.665)" fill="#1e2611"/>
    <path id="Path_112" data-name="Path 112" d="M22.771,190.053a3.385,3.385,0,1,1-3.386-3.385A3.385,3.385,0,0,1,22.771,190.053Zm0,0" transform="translate(-15.219 -177.553)" fill="#1e2611"/>
    <path id="Path_113" data-name="Path 113" d="M4.167,179a4.167,4.167,0,1,1,4.167-4.167A4.171,4.171,0,0,1,4.167,179Zm0-6.771a2.6,2.6,0,1,0,2.6,2.6,2.607,2.607,0,0,0-2.6-2.6Zm0,0" transform="translate(0 -162.334)" fill="#1e2611"/>
    <path id="Path_114" data-name="Path 114" d="M115.391,97.81a1.042,1.042,0,0,1-.517-1.947l9.665-5.51a1.042,1.042,0,1,1,1.031,1.81l-9.666,5.51A1.035,1.035,0,0,1,115.391,97.81Zm0,0" transform="translate(-108.765 -85.809)" fill="#1e2611"/>
    <path id="Path_115" data-name="Path 115" d="M125.077,273.813a1.035,1.035,0,0,1-.515-.137l-9.666-5.51a1.042,1.042,0,0,1,1.031-1.81l9.666,5.51a1.042,1.042,0,0,1-.517,1.947Zm0,0" transform="translate(-108.787 -253.22)" fill="#1e2611"/>
  </g>
</svg>
