<svg xmlns="http://www.w3.org/2000/svg" width="32" height="32" viewBox="0 0 32 32">
  <g id="twitter-sticky" transform="translate(0 0.211)">
    <g id="Rectangle_63" data-name="Rectangle 63" transform="translate(0 -0.211)" fill="none" stroke="#1e2611" stroke-width="2">
      <rect width="32" height="32" stroke="none"/>
      <rect x="1" y="1" width="30" height="30" fill="none"/>
    </g>
    <path id="Icon_awesome-twitter" data-name="Icon awesome-twitter" d="M15.583,6.9c.011.154.011.309.011.463A10.059,10.059,0,0,1,5.466,17.487,10.059,10.059,0,0,1,0,15.889a7.364,7.364,0,0,0,.86.044,7.129,7.129,0,0,0,4.419-1.521,3.566,3.566,0,0,1-3.328-2.469A4.489,4.489,0,0,0,2.623,12a3.765,3.765,0,0,0,.937-.121A3.56,3.56,0,0,1,.705,8.384V8.34a3.585,3.585,0,0,0,1.609.452,3.565,3.565,0,0,1-1.1-4.761,10.118,10.118,0,0,0,7.34,3.725,4.018,4.018,0,0,1-.088-.816A3.563,3.563,0,0,1,14.624,4.5a7.008,7.008,0,0,0,2.259-.86,3.55,3.55,0,0,1-1.565,1.962,7.136,7.136,0,0,0,2.05-.551A7.652,7.652,0,0,1,15.583,6.9Z" transform="translate(7.895 6.093)" fill="#1e2611"/>
  </g>
</svg>
