<svg xmlns="http://www.w3.org/2000/svg" width="30" height="30" viewBox="0 0 30 30">
  <g id="twitter-footer-icon" transform="translate(-738 -5407)">
    <path id="twitter" d="M17.571,6.26a6.153,6.153,0,0,1-1.767.485,3.087,3.087,0,0,0,1.353-1.7,6.161,6.161,0,0,1-1.954.747A3.08,3.08,0,0,0,9.958,8.6,8.737,8.737,0,0,1,3.615,5.381a3.081,3.081,0,0,0,.952,4.109A3.065,3.065,0,0,1,3.173,9.1c0,.013,0,.026,0,.039a3.079,3.079,0,0,0,2.469,3.018,3.082,3.082,0,0,1-1.39.053A3.08,3.08,0,0,0,7.127,14.35,6.174,6.174,0,0,1,3.3,15.668a6.241,6.241,0,0,1-.734-.043A8.752,8.752,0,0,0,16.044,8.251q0-.2-.009-.4A6.252,6.252,0,0,0,17.571,6.26Z" transform="translate(743.429 5411.183)" fill="#ffde5c"/>
    <g id="Rectangle_121" data-name="Rectangle 121" transform="translate(738 5407)" fill="none" stroke="#ffde5c" stroke-width="1">
      <rect width="30" height="30" stroke="none"/>
      <rect x="0.5" y="0.5" width="29" height="29" fill="none"/>
    </g>
  </g>
</svg>
