<svg xmlns="http://www.w3.org/2000/svg" width="20" height="20" viewBox="0 0 20 20">
  <g id="twitter-upper" transform="translate(-160 -12)">
    <g id="Rectangle_63" data-name="Rectangle 63" transform="translate(160 12)" fill="none" stroke="#ffde5c" stroke-width="1">
      <rect width="20" height="20" stroke="none"/>
      <rect x="0.5" y="0.5" width="19" height="19" fill="none"/>
    </g>
    <path id="Icon_awesome-twitter" data-name="Icon awesome-twitter" d="M9.869,5.607c.007.1.007.2.007.293a6.37,6.37,0,0,1-6.414,6.414A6.371,6.371,0,0,1,0,11.3a4.664,4.664,0,0,0,.544.028,4.515,4.515,0,0,0,2.8-.963A2.258,2.258,0,0,1,1.235,8.8a2.843,2.843,0,0,0,.426.035,2.384,2.384,0,0,0,.593-.077A2.255,2.255,0,0,1,.447,6.55V6.522a2.27,2.27,0,0,0,1.019.286,2.258,2.258,0,0,1-.7-3.015A6.408,6.408,0,0,0,5.416,6.152a2.545,2.545,0,0,1-.056-.516,2.257,2.257,0,0,1,3.9-1.543,4.439,4.439,0,0,0,1.431-.544A2.248,2.248,0,0,1,9.7,4.791,4.52,4.52,0,0,0,11,4.442,4.846,4.846,0,0,1,9.869,5.607Z" transform="translate(165 14.619)" fill="#ffde5c"/>
  </g>
</svg>
