<svg xmlns="http://www.w3.org/2000/svg" width="60" height="60" viewBox="0 0 60 60">
  <g id="vehicle_icon" transform="translate(-466 -2334)">
    <g id="Ellipse_3" data-name="Ellipse 3" transform="translate(466 2334)" fill="#1e2611" stroke="#ffde5c" stroke-width="1">
      <circle cx="30" cy="30" r="30" stroke="none"/>
      <circle cx="30" cy="30" r="29.5" fill="none"/>
    </g>
    <path id="Path_73" data-name="Path 73" d="M519.363,250.628c1.1-.323,2.623-.355,3.531-.714.6-.238,1.408-.808,2.151-1.067,2.893-1.007,3.327-.312,4.274-1.392,1.517,1.3,2.532.8,3.616,1.392.43.234.913.871,1.256,1.067a9.984,9.984,0,0,1,2.737.714ZM548,256.91v1.756a.731.731,0,0,1-.729.729h-2.276l-.965-1.148a.67.67,0,0,0-.507-.21H537.9v-8.244h6.5c1.574.148,2.011,1.148,2.485,2.485L548,256.91Zm-2.158-4.3a.341.341,0,0,0-.258.355l-.081,2.247c-.006.171.184.258.355.258h1.02l-.693-2.924-.343.065Zm-4.2-.01a.311.311,0,0,0-.31.311v2.245a.312.312,0,0,0,.31.311l2.889.021a.311.311,0,0,0,.311-.311l.015-2.267a.312.312,0,0,0-.311-.311ZM518,251.468h19.591l-1.058,6.457H519.058L518,251.468Zm1.32,7.481a.409.409,0,0,0-.432.376v2.683a.409.409,0,0,0,.432.377H521.6v-.017a2.871,2.871,0,0,1,5.742,0v.017h11.23v-.017a2.871,2.871,0,0,1,5.742,0v.017h2.979a.409.409,0,0,0,.433-.377v-1.781a1.63,1.63,0,0,1-.456.065h-2.693l-1.128-1.342Zm5.153,2.486a.932.932,0,1,1-.932.932.932.932,0,0,1,.932-.932Zm16.972,0a.932.932,0,1,1-.932.932.932.932,0,0,1,.932-.932ZM524.472,260a2.367,2.367,0,1,1-2.367,2.367A2.367,2.367,0,0,1,524.472,260Zm16.972,0a2.367,2.367,0,1,1-2.367,2.367A2.367,2.367,0,0,1,541.444,260Z" transform="translate(-37 2108.467)" fill="#ffde5c" fill-rule="evenodd"/>
  </g>
</svg>
