<svg xmlns="http://www.w3.org/2000/svg" width="313.928" height="120.094" viewBox="0 0 313.928 120.094">
  <g id="aside--logo" transform="translate(-536.539 -36.135)">
    <g id="Group_6" data-name="Group 6" transform="translate(536.539 36.135)">
      <g id="Group_1" data-name="Group 1" transform="translate(0 0)">
        <path id="Path_1" data-name="Path 1" d="M631.733,140.969H580.017L554.158,96.181l25.859-44.788h51.716l8.81-15.258H571.207L536.539,96.181l34.668,60.047h69.336Z" transform="translate(-536.539 -36.135)" fill="#1e2611"/>
        <path id="Path_2" data-name="Path 2" d="M625.642,76.16l-8.534-14.779H582.83L565.69,91.067l17.14,29.687h34.278l8.534-14.78h-34.28l-8.607-14.907,8.607-14.907h17.214l8.607,14.907Z" transform="translate(-530.633 -31.021)" fill="#1e2611"/>
        <path id="Path_3" data-name="Path 3" d="M602.8,73.67,594.2,88.578h17.214Z" transform="translate(-524.859 -28.531)" fill="#1e2611" opacity="0.5"/>
      </g>
      <g id="Group_5" data-name="Group 5" transform="translate(129.573 9.966)">
        <g id="Group_2" data-name="Group 2">
          <path id="Path_4" data-name="Path 4" d="M694.973,94.808v13.8H644.284V45.472H693.8v13.8H661.963V69.915h28.049V83.262H661.963V94.808Z" transform="translate(-644.284 -44.209)" fill="#1e2611"/>
          <path id="Path_5" data-name="Path 5" d="M708.821,105.889a31.34,31.34,0,0,1-12.4-11.681,32.207,32.207,0,0,1-4.51-16.955,32.222,32.222,0,0,1,4.51-16.958,31.362,31.362,0,0,1,12.4-11.68,37.362,37.362,0,0,1,17.813-4.193,38.243,38.243,0,0,1,15.6,3.067,30.019,30.019,0,0,1,11.545,8.839L742.417,66.608q-6.133-7.394-14.882-7.395a18.38,18.38,0,0,0-9.154,2.255,15.649,15.649,0,0,0-6.224,6.358,21.2,21.2,0,0,0,0,18.851,15.637,15.637,0,0,0,6.224,6.359,18.367,18.367,0,0,0,9.154,2.255q8.749,0,14.882-7.4l11.366,10.283a30.019,30.019,0,0,1-11.545,8.839,38.263,38.263,0,0,1-15.6,3.065A37.362,37.362,0,0,1,708.821,105.889Z" transform="translate(-634.636 -44.422)" fill="#1e2611"/>
          <path id="Path_6" data-name="Path 6" d="M763.045,105.889a31.339,31.339,0,0,1-12.4-11.681,32.2,32.2,0,0,1-4.51-16.955,32.21,32.21,0,0,1,4.51-16.958,31.361,31.361,0,0,1,12.4-11.68,37.359,37.359,0,0,1,17.813-4.193,38.25,38.25,0,0,1,15.6,3.067,30.019,30.019,0,0,1,11.544,8.839L796.641,66.608q-6.133-7.394-14.882-7.395a18.375,18.375,0,0,0-9.154,2.255,15.64,15.64,0,0,0-6.223,6.358,19.561,19.561,0,0,0-2.211,9.426,19.549,19.549,0,0,0,2.211,9.425,15.628,15.628,0,0,0,6.223,6.359,18.362,18.362,0,0,0,9.154,2.255q8.749,0,14.882-7.4l11.365,10.283a30.019,30.019,0,0,1-11.544,8.839,38.27,38.27,0,0,1-15.6,3.065A37.359,37.359,0,0,1,763.045,105.889Z" transform="translate(-623.651 -44.422)" fill="#1e2611"/>
        </g>
        <g id="Group_3" data-name="Group 3" transform="translate(3.563 86.611)">
          <path id="Path_7" data-name="Path 7" d="M659.311,124.314a2.355,2.355,0,0,1-.585,1.7,2.179,2.179,0,0,1-1.656.613h-5.235q-4.588,0-4.588-4.088v-2.465h1.6v2.465a2.227,2.227,0,0,0,.825,1.981,3.435,3.435,0,0,0,1.973.465H655.6a2.907,2.907,0,0,0,1.515-.275,1.663,1.663,0,0,0,.605-1.5v-3.135h1.593Zm-8.216-4.256v-1.6h1.578v1.6Zm2.74,0v-1.6h1.578v1.6Z" transform="translate(-647.247 -116.035)" fill="#1e2611"/>
          <path id="Path_8" data-name="Path 8" d="M665.377,124.549a2.116,2.116,0,0,1-.683,1.649,2.655,2.655,0,0,1-1.854.621h-4.319v-1.642h2.213l-1.818-6.646h1.7l1.8,6.646a1.324,1.324,0,0,0,.986-.325,1.916,1.916,0,0,0,.4-1.381V117.51h1.572Z" transform="translate(-644.963 -116.227)" fill="#1e2611"/>
          <path id="Path_9" data-name="Path 9" d="M668.463,128.737v-1.282q1.5-.041,1.543-1.832a1.6,1.6,0,0,1-1.53.732,2.92,2.92,0,0,1-2.24-.924,3.337,3.337,0,0,1-.86-2.367,3.291,3.291,0,0,1,.867-2.368,3.216,3.216,0,0,1,4.5.02,3.4,3.4,0,0,1,.852,2.389v3.044Q671.6,128.739,668.463,128.737Zm1.053-6.965a1.366,1.366,0,0,0-1.11-.51,1.223,1.223,0,0,0-1.019.528,2.059,2.059,0,0,0-.4,1.276,2.032,2.032,0,0,0,.42,1.3,1.333,1.333,0,0,0,2.114.02,1.933,1.933,0,0,0,.411-1.251A2.091,2.091,0,0,0,669.517,121.772Z" transform="translate(-643.574 -115.765)" fill="#1e2611"/>
          <path id="Path_10" data-name="Path 10" d="M674.148,126.818a2.195,2.195,0,0,1-1.79-.747,2.828,2.828,0,0,1-.577-1.882V117.51h1.607v6.031a1.647,1.647,0,0,0,.457,1.389,2.219,2.219,0,0,0,1.241.246h.958v1.642Z" transform="translate(-642.276 -116.227)" fill="#1e2611"/>
          <path id="Path_11" data-name="Path 11" d="M683.061,127.034a5.548,5.548,0,0,1-3.213-.8,5.44,5.44,0,0,1-3.192.8H674.88v-1.642h1.691a3.311,3.311,0,0,0,1.34-.162,3.453,3.453,0,0,1-1.064-1.325,3.631,3.631,0,0,1-.331-1.5,2.753,2.753,0,0,1,.169-1,3.5,3.5,0,0,1,1.251-1.627,3.269,3.269,0,0,1,1.928-.592,3.542,3.542,0,0,1,2.343.853,2.85,2.85,0,0,1,1.018,2.3,3.553,3.553,0,0,1-.345,1.529,3.41,3.41,0,0,1-1.057,1.36,3.2,3.2,0,0,0,1.346.162h1.5v1.642Zm-5.4-8.977v-1.614h1.592v1.614Zm4.03,4.2A1.889,1.889,0,0,0,678.473,121a1.809,1.809,0,0,0-.457,1.254,2.165,2.165,0,0,0,.951,1.846,5.267,5.267,0,0,0,.895.536,6.344,6.344,0,0,0,.88-.536A2.143,2.143,0,0,0,681.694,122.256Zm-1.282-4.2v-1.614H682v1.614Z" transform="translate(-641.649 -116.443)" fill="#1e2611"/>
          <path id="Path_12" data-name="Path 12" d="M689.979,126.166a3.322,3.322,0,0,1-5.2,0h-2.206v-1.642h1.556c-.008-.108-.013-.268-.013-.48a3.306,3.306,0,0,1,.895-2.381,3.131,3.131,0,0,1,2.353-.938,3.012,3.012,0,0,1,2.339.966,3.441,3.441,0,0,1,.895,2.41v.423h1.445v1.642Zm-1.431-3.389a1.48,1.48,0,0,0-1.225-.593,1.383,1.383,0,0,0-1.17.578,2.287,2.287,0,0,0,.075,2.611,1.456,1.456,0,0,0,1.183.546,1.365,1.365,0,0,0,1.152-.55,2.09,2.09,0,0,0,.374-1.283A2.153,2.153,0,0,0,688.548,122.778Z" transform="translate(-640.09 -115.575)" fill="#1e2611"/>
          <path id="Path_13" data-name="Path 13" d="M690.05,126.818v-1.642h1.5a.984.984,0,0,0,.966-.493,2.442,2.442,0,0,0,.176-1.1V117.51h1.6V123.5a2.791,2.791,0,0,1-.345,1.678h2.713v1.642Z" transform="translate(-638.576 -116.227)" fill="#1e2611"/>
          <path id="Path_14" data-name="Path 14" d="M696.905,126.818h-1.7v-1.642h1.374a1.02,1.02,0,0,0,1.022-.48,3.2,3.2,0,0,0,.112-1.043V117.51h1.621V124.2Q699.329,126.817,696.905,126.818Z" transform="translate(-637.532 -116.227)" fill="#1e2611"/>
          <path id="Path_15" data-name="Path 15" d="M710.739,127.449a4.836,4.836,0,0,1-3.523,1.417h-.1a4.856,4.856,0,0,1-3.538-1.417,4.7,4.7,0,0,1-1.43-3.515v-1.607h1.62v1.43a3.642,3.642,0,0,0,.867,2.551,3.159,3.159,0,0,0,2.523,1.015q3.149,0,3.4-3.361h-3.8a4.667,4.667,0,0,1,1.261-3.509,4.953,4.953,0,0,1,3.6-1.227v1.5a4.338,4.338,0,0,0-1.818.3,2.5,2.5,0,0,0-1.183,1.353h3.565v1.551A4.681,4.681,0,0,1,710.739,127.449Z" transform="translate(-636.124 -115.879)" fill="#1e2611"/>
          <path id="Path_16" data-name="Path 16" d="M711.613,126.354v-1.642h5.22q0-2.834-2.191-3.3a6.555,6.555,0,0,0-1.459-.135V119.8q1.1,0,1.5.028a3.575,3.575,0,0,1,.867.2q2.89.965,2.917,4.679v1.642Z" transform="translate(-634.207 -115.763)" fill="#1e2611"/>
          <path id="Path_17" data-name="Path 17" d="M720.912,126.818a2.193,2.193,0,0,1-1.789-.747,2.823,2.823,0,0,1-.579-1.882V117.51h1.607v6.031a1.648,1.648,0,0,0,.458,1.389,2.218,2.218,0,0,0,1.24.246h.958v1.642Z" transform="translate(-632.803 -116.227)" fill="#1e2611"/>
          <path id="Path_18" data-name="Path 18" d="M721.333,126.359v-1.642h1.614q1.227,0,1.227-1.705V120.5h1.62v2a7.647,7.647,0,0,1,2.114-2.019,4.385,4.385,0,0,1,2.319-.708q3.649,0,3.721,4.94h1.705v1.642Zm10.965-2.107a3.635,3.635,0,0,0-.606-2.216,1.929,1.929,0,0,0-1.628-.814,3.7,3.7,0,0,0-2.375.987,6.84,6.84,0,0,0-1.853,2.509h6.434Z" transform="translate(-632.238 -115.768)" fill="#1e2611"/>
          <path id="Path_19" data-name="Path 19" d="M732.853,118.958v-1.607h1.585v1.607Zm.084,7.893v-1.642h1.5a.984.984,0,0,0,.966-.493,2.444,2.444,0,0,0,.176-1.1V120.3h1.6v3.234a2.791,2.791,0,0,1-.346,1.678H739.6v1.642Zm2.657-7.893v-1.607h1.586v1.607Z" transform="translate(-629.904 -116.259)" fill="#1e2611"/>
          <path id="Path_20" data-name="Path 20" d="M743.269,126.855h-5.137v-1.642h2.3a3.667,3.667,0,0,1-.415-1.72,3.3,3.3,0,0,1,.908-2.4,3.137,3.137,0,0,1,2.347-.931,3.053,3.053,0,0,1,2.325.966,3.378,3.378,0,0,1,.909,2.41,3.311,3.311,0,0,1-.895,2.382A3.088,3.088,0,0,1,743.269,126.855Zm-2.163-7.92v-1.607h1.571v1.607Zm3.287,3.237a1.474,1.474,0,0,0-1.18-.539,1.393,1.393,0,0,0-1.117.5,2.25,2.25,0,0,0,.035,2.682,1.468,1.468,0,0,0,1.174.55,1.386,1.386,0,0,0,1.117-.511,2,2,0,0,0,.426-1.322A2.044,2.044,0,0,0,744.393,122.172Zm-.546-3.237v-1.607h1.579v1.607Z" transform="translate(-628.835 -116.264)" fill="#1e2611"/>
          <path id="Path_21" data-name="Path 21" d="M753.186,124.549a2.117,2.117,0,0,1-.684,1.649,2.651,2.651,0,0,1-1.853.621h-4.32v-1.642h2.213l-1.817-6.646h1.7l1.8,6.646a1.326,1.326,0,0,0,.986-.325,1.914,1.914,0,0,0,.4-1.381V117.51h1.572Zm-6.765,5.229v-.663H747a2.821,2.821,0,0,1-.133-.508,1.189,1.189,0,0,1,.331-.853,1.066,1.066,0,0,1,.8-.345.973.973,0,0,1,.909.663l-.522.247a.358.358,0,0,0-.4-.317.439.439,0,0,0-.356.166.681.681,0,0,0,.122.948h1.171v.663Z" transform="translate(-627.174 -116.227)" fill="#1e2611"/>
          <path id="Path_22" data-name="Path 22" d="M753.29,126.82V117.5H754.9v9.322Z" transform="translate(-625.764 -116.229)" fill="#1e2611"/>
          <path id="Path_23" data-name="Path 23" d="M761.783,126.848a2.536,2.536,0,0,1-1.114,1.775,4.246,4.246,0,0,1-2.41.621v-1.388a1.791,1.791,0,0,0,2.008-2.043v-5.517h1.614v4.911h2.48v1.642Zm-1.5-7.878v-1.607h1.585v1.607Z" transform="translate(-624.758 -116.257)" fill="#1e2611"/>
          <path id="Path_24" data-name="Path 24" d="M772.518,126.818h-9.653v-1.642h7.926a3.5,3.5,0,0,0-.782-2.3,3.061,3.061,0,0,0-2.494-1.1h-3.333l2.84-4.269h1.915l-1.944,2.755h.7a4.736,4.736,0,0,1,2.77.8q2.051,1.353,2.05,4.749Z" transform="translate(-623.825 -116.227)" fill="#1e2611"/>
          <path id="Path_25" data-name="Path 25" d="M775.305,126.354a2.533,2.533,0,0,1-1.114,1.775,4.239,4.239,0,0,1-2.409.621v-1.388a1.79,1.79,0,0,0,2.007-2.043V119.8H775.4v4.911h2.481v1.642Z" transform="translate(-622.018 -115.763)" fill="#1e2611"/>
          <path id="Path_26" data-name="Path 26" d="M783.781,126.166a3.322,3.322,0,0,1-5.2,0h-2.206v-1.642h1.557q-.014-.162-.014-.48a3.307,3.307,0,0,1,.9-2.381,3.132,3.132,0,0,1,2.354-.938,3.015,3.015,0,0,1,2.339.966,3.441,3.441,0,0,1,.895,2.41v.423h1.444v1.642Zm-1.43-3.389a1.482,1.482,0,0,0-1.225-.593,1.381,1.381,0,0,0-1.17.578,2.284,2.284,0,0,0,.073,2.611,1.459,1.459,0,0,0,1.184.546,1.367,1.367,0,0,0,1.152-.55,2.089,2.089,0,0,0,.373-1.283A2.153,2.153,0,0,0,782.351,122.778Z" transform="translate(-621.087 -115.575)" fill="#1e2611"/>
          <path id="Path_27" data-name="Path 27" d="M785.534,126.818h-1.705v-1.642H785.2a1.021,1.021,0,0,0,1.022-.48,3.2,3.2,0,0,0,.112-1.043V117.51h1.621V124.2Q787.959,126.817,785.534,126.818Z" transform="translate(-619.577 -116.227)" fill="#1e2611"/>
          <path id="Path_28" data-name="Path 28" d="M788.493,126.82V117.5H790.1v9.322Z" transform="translate(-618.633 -116.229)" fill="#1e2611"/>
        </g>
        <g id="Group_4" data-name="Group 4" transform="translate(1.977 77.04)">
          <path id="Path_29" data-name="Path 29" d="M650.979,114.25V115.3h-5.051v-6.735h4.915v1.049h-3.664v1.751h3.252v1.029h-3.252v1.857Z" transform="translate(-645.928 -108.468)" fill="#1e2611"/>
          <path id="Path_30" data-name="Path 30" d="M652.62,114.964a3.289,3.289,0,0,1-1.289-1.236,3.612,3.612,0,0,1,0-3.56,3.33,3.33,0,0,1,1.293-1.236,3.8,3.8,0,0,1,1.844-.447,3.838,3.838,0,0,1,1.509.289,3.077,3.077,0,0,1,1.154.837l-.807.76a2.361,2.361,0,0,0-1.8-.789,2.521,2.521,0,0,0-1.24.3,2.188,2.188,0,0,0-.857.842,2.579,2.579,0,0,0,0,2.444,2.188,2.188,0,0,0,.857.842,2.521,2.521,0,0,0,1.24.3,2.345,2.345,0,0,0,1.8-.8l.807.77a3.071,3.071,0,0,1-1.158.837,3.882,3.882,0,0,1-1.515.289A3.79,3.79,0,0,1,652.62,114.964Z" transform="translate(-644.928 -108.484)" fill="#1e2611"/>
          <path id="Path_31" data-name="Path 31" d="M658.33,114.964a3.307,3.307,0,0,1-1.3-1.241,3.577,3.577,0,0,1,0-3.55,3.307,3.307,0,0,1,1.3-1.241,4.078,4.078,0,0,1,3.714,0,3.333,3.333,0,0,1,1.3,1.236,3.6,3.6,0,0,1,0,3.56,3.332,3.332,0,0,1-1.3,1.236,4.077,4.077,0,0,1-3.714,0Zm3.069-.952a2.194,2.194,0,0,0,.847-.847,2.559,2.559,0,0,0,0-2.434,2.193,2.193,0,0,0-.847-.847,2.576,2.576,0,0,0-2.424,0,2.184,2.184,0,0,0-.846.847,2.559,2.559,0,0,0,0,2.434,2.184,2.184,0,0,0,.846.847,2.576,2.576,0,0,0,2.424,0Z" transform="translate(-643.774 -108.484)" fill="#1e2611"/>
          <path id="Path_32" data-name="Path 32" d="M669.679,108.564V115.3h-1.028l-3.714-4.56v4.56H663.7v-6.735h1.03l3.714,4.56v-4.56Z" transform="translate(-642.328 -108.468)" fill="#1e2611"/>
          <path id="Path_33" data-name="Path 33" d="M671.546,114.964a3.308,3.308,0,0,1-1.3-1.241,3.577,3.577,0,0,1,0-3.55,3.308,3.308,0,0,1,1.3-1.241,4.077,4.077,0,0,1,3.713,0,3.322,3.322,0,0,1,1.3,1.236,3.6,3.6,0,0,1,0,3.56,3.321,3.321,0,0,1-1.3,1.236,4.076,4.076,0,0,1-3.713,0Zm3.069-.952a2.194,2.194,0,0,0,.847-.847,2.561,2.561,0,0,0,0-2.434,2.194,2.194,0,0,0-.847-.847,2.576,2.576,0,0,0-2.424,0,2.194,2.194,0,0,0-.847.847,2.569,2.569,0,0,0,0,2.434,2.194,2.194,0,0,0,.847.847,2.576,2.576,0,0,0,2.424,0Z" transform="translate(-641.097 -108.484)" fill="#1e2611"/>
          <path id="Path_34" data-name="Path 34" d="M683.1,115.3l-.011-4.464-2.213,3.694h-.558l-2.212-3.637V115.3h-1.194v-6.735h1.031l2.673,4.464,2.626-4.464h1.031l.008,6.735Z" transform="translate(-639.651 -108.468)" fill="#1e2611"/>
          <path id="Path_35" data-name="Path 35" d="M684.552,108.564h1.25V115.3h-1.25Z" transform="translate(-638.103 -108.468)" fill="#1e2611"/>
          <path id="Path_36" data-name="Path 36" d="M688.458,114.964a3.309,3.309,0,0,1-1.288-1.236,3.6,3.6,0,0,1,0-3.56,3.333,3.333,0,0,1,1.294-1.236,3.791,3.791,0,0,1,1.841-.447,3.848,3.848,0,0,1,1.512.289,3.085,3.085,0,0,1,1.154.837l-.808.76a2.359,2.359,0,0,0-1.8-.789,2.521,2.521,0,0,0-1.241.3,2.176,2.176,0,0,0-.856.842,2.579,2.579,0,0,0,0,2.444,2.176,2.176,0,0,0,.856.842,2.521,2.521,0,0,0,1.241.3,2.344,2.344,0,0,0,1.8-.8l.808.77a3.066,3.066,0,0,1-1.161.837,3.864,3.864,0,0,1-1.514.289A3.8,3.8,0,0,1,688.458,114.964Z" transform="translate(-637.668 -108.484)" fill="#1e2611"/>
          <path id="Path_37" data-name="Path 37" d="M696.483,114.964a3.3,3.3,0,0,1-1.288-1.236,3.608,3.608,0,0,1,0-3.56,3.335,3.335,0,0,1,1.3-1.236,3.789,3.789,0,0,1,1.841-.447,3.847,3.847,0,0,1,1.512.289,3.092,3.092,0,0,1,1.154.837l-.808.76a2.362,2.362,0,0,0-1.8-.789,2.523,2.523,0,0,0-1.242.3,2.171,2.171,0,0,0-.855.842,2.579,2.579,0,0,0,0,2.444,2.172,2.172,0,0,0,.855.842,2.523,2.523,0,0,0,1.242.3,2.347,2.347,0,0,0,1.8-.8l.808.77a3.074,3.074,0,0,1-1.16.837,3.873,3.873,0,0,1-1.515.289A3.793,3.793,0,0,1,696.483,114.964Z" transform="translate(-636.042 -108.484)" fill="#1e2611"/>
          <path id="Path_38" data-name="Path 38" d="M705.995,114.25V115.3h-5.051v-6.735h4.916v1.049h-3.666v1.751h3.252v1.029h-3.252v1.857Z" transform="translate(-634.783 -108.468)" fill="#1e2611"/>
          <path id="Path_39" data-name="Path 39" d="M712.287,108.564V115.3h-1.03l-3.714-4.56v4.56H706.3v-6.735h1.03l3.713,4.56v-4.56Z" transform="translate(-633.697 -108.468)" fill="#1e2611"/>
          <path id="Path_40" data-name="Path 40" d="M714.295,109.622h-2.231v-1.058h5.715v1.058h-2.233V115.3h-1.25Z" transform="translate(-632.53 -108.468)" fill="#1e2611"/>
          <path id="Path_41" data-name="Path 41" d="M722.65,114.25V115.3H717.6v-6.735h4.916v1.049H718.85v1.751H722.1v1.029H718.85v1.857Z" transform="translate(-631.409 -108.468)" fill="#1e2611"/>
          <path id="Path_42" data-name="Path 42" d="M727.365,115.3l-1.375-1.972c-.058.006-.144.01-.261.01h-1.52V115.3h-1.25v-6.735h2.771a3.74,3.74,0,0,1,1.526.289,2.225,2.225,0,0,1,1,.827,2.323,2.323,0,0,1,.347,1.28,2.289,2.289,0,0,1-.371,1.308,2.2,2.2,0,0,1-1.063.818l1.548,2.213Zm-.452-5.33a1.92,1.92,0,0,0-1.241-.346h-1.463v2.684h1.463a1.9,1.9,0,0,0,1.241-.351,1.221,1.221,0,0,0,.423-1A1.206,1.206,0,0,0,726.913,109.969Z" transform="translate(-630.323 -108.468)" fill="#1e2611"/>
          <path id="Path_43" data-name="Path 43" d="M732.371,114.964a3.306,3.306,0,0,1-1.289-1.236,3.612,3.612,0,0,1,0-3.56,3.331,3.331,0,0,1,1.294-1.236,3.793,3.793,0,0,1,1.842-.447,3.841,3.841,0,0,1,1.51.289,3.084,3.084,0,0,1,1.155.837l-.808.76a2.36,2.36,0,0,0-1.8-.789,2.525,2.525,0,0,0-1.241.3,2.176,2.176,0,0,0-.856.842,2.579,2.579,0,0,0,0,2.444,2.176,2.176,0,0,0,.856.842,2.525,2.525,0,0,0,1.241.3,2.345,2.345,0,0,0,1.8-.8l.808.77a3.075,3.075,0,0,1-1.159.837,3.876,3.876,0,0,1-1.516.289A3.79,3.79,0,0,1,732.371,114.964Z" transform="translate(-628.772 -108.484)" fill="#1e2611"/>
          <path id="Path_44" data-name="Path 44" d="M738.083,114.964a3.308,3.308,0,0,1-1.3-1.241,3.577,3.577,0,0,1,0-3.55,3.309,3.309,0,0,1,1.3-1.241,4.075,4.075,0,0,1,3.712,0,3.324,3.324,0,0,1,1.3,1.236,3.6,3.6,0,0,1,0,3.56,3.324,3.324,0,0,1-1.3,1.236,4.074,4.074,0,0,1-3.712,0Zm3.067-.952a2.2,2.2,0,0,0,.847-.847,2.559,2.559,0,0,0,0-2.434,2.2,2.2,0,0,0-.847-.847,2.574,2.574,0,0,0-2.423,0,2.178,2.178,0,0,0-.846.847,2.554,2.554,0,0,0,0,2.434,2.178,2.178,0,0,0,.846.847,2.574,2.574,0,0,0,2.423,0Z" transform="translate(-627.618 -108.484)" fill="#1e2611"/>
          <path id="Path_45" data-name="Path 45" d="M749.43,108.564V115.3H748.4l-3.713-4.56v4.56h-1.241v-6.735h1.029l3.714,4.56v-4.56Z" transform="translate(-626.172 -108.468)" fill="#1e2611"/>
          <path id="Path_46" data-name="Path 46" d="M751.439,109.622h-2.232v-1.058h5.715v1.058H752.69V115.3h-1.251Z" transform="translate(-625.005 -108.468)" fill="#1e2611"/>
          <path id="Path_47" data-name="Path 47" d="M759.149,115.3l-1.375-1.972c-.059.006-.145.01-.261.01h-1.519V115.3h-1.252v-6.735h2.771a3.737,3.737,0,0,1,1.526.289,2.222,2.222,0,0,1,1,.827,2.325,2.325,0,0,1,.346,1.28,2.286,2.286,0,0,1-.372,1.308,2.2,2.2,0,0,1-1.062.818L760.5,115.3Zm-.452-5.33a1.927,1.927,0,0,0-1.242-.346h-1.461v2.684h1.461a1.905,1.905,0,0,0,1.242-.351,1.223,1.223,0,0,0,.422-1A1.209,1.209,0,0,0,758.7,109.969Z" transform="translate(-623.884 -108.468)" fill="#1e2611"/>
          <path id="Path_48" data-name="Path 48" d="M765.119,113.74h-3.367l-.664,1.559H759.8l3.032-6.735h1.23l3.04,6.735h-1.307Zm-.414-.981-1.269-2.944-1.261,2.944Z" transform="translate(-622.859 -108.468)" fill="#1e2611"/>
          <path id="Path_49" data-name="Path 49" d="M767.857,114.964a3.3,3.3,0,0,1-1.288-1.236,3.606,3.606,0,0,1,0-3.56,3.336,3.336,0,0,1,1.3-1.236,3.789,3.789,0,0,1,1.841-.447,3.846,3.846,0,0,1,1.512.289,3.089,3.089,0,0,1,1.154.837l-.808.76a2.362,2.362,0,0,0-1.8-.789,2.524,2.524,0,0,0-1.242.3,2.176,2.176,0,0,0-.855.842,2.579,2.579,0,0,0,0,2.444,2.176,2.176,0,0,0,.855.842,2.525,2.525,0,0,0,1.242.3,2.346,2.346,0,0,0,1.8-.8l.808.77a3.073,3.073,0,0,1-1.16.837,3.874,3.874,0,0,1-1.515.289A3.8,3.8,0,0,1,767.857,114.964Z" transform="translate(-621.582 -108.484)" fill="#1e2611"/>
          <path id="Path_50" data-name="Path 50" d="M773.766,109.622h-2.232v-1.058h5.715v1.058h-2.232V115.3h-1.251Z" transform="translate(-620.482 -108.468)" fill="#1e2611"/>
          <path id="Path_51" data-name="Path 51" d="M777.071,108.564h1.251V115.3h-1.251Z" transform="translate(-619.36 -108.468)" fill="#1e2611"/>
          <path id="Path_52" data-name="Path 52" d="M785.606,108.564V115.3h-1.029l-3.712-4.56v4.56h-1.242v-6.735h1.031l3.714,4.56v-4.56Z" transform="translate(-618.843 -108.468)" fill="#1e2611"/>
          <path id="Path_53" data-name="Path 53" d="M790.782,111.87h1.182v2.684a3.775,3.775,0,0,1-1.211.635,4.641,4.641,0,0,1-1.424.221,3.84,3.84,0,0,1-1.857-.447,3.324,3.324,0,0,1-1.3-1.236,3.589,3.589,0,0,1,0-3.56,3.311,3.311,0,0,1,1.3-1.236,3.888,3.888,0,0,1,1.871-.447,4.079,4.079,0,0,1,1.539.279,3.012,3.012,0,0,1,1.164.818l-.79.77a2.526,2.526,0,0,0-1.856-.77,2.626,2.626,0,0,0-1.265.3,2.163,2.163,0,0,0-.866.837,2.4,2.4,0,0,0-.313,1.232,2.362,2.362,0,0,0,.313,1.212,2.235,2.235,0,0,0,.866.847,2.542,2.542,0,0,0,1.256.308,2.71,2.71,0,0,0,1.385-.346Z" transform="translate(-617.612 -108.484)" fill="#1e2611"/>
        </g>
      </g>
    </g>
  </g>
</svg>
