<svg xmlns="http://www.w3.org/2000/svg" width="350" height="133.893" viewBox="0 0 350 133.893">
  <g id="Group_1700" data-name="Group 1700" transform="translate(-536.539 -36.135)">
    <g id="Group_6" data-name="Group 6" transform="translate(536.539 36.135)">
      <g id="Group_1" data-name="Group 1">
        <path id="Path_1" data-name="Path 1" d="M642.672,153.015H585.013l-28.831-49.934,28.831-49.934h57.659l9.822-17.012h-77.3l-38.652,66.946,38.652,66.947h77.3Z" transform="translate(-536.539 -36.135)" fill="#fff"/>
        <path id="Path_2" data-name="Path 2" d="M632.531,77.858l-9.514-16.477H584.8l-19.11,33.1,19.11,33.1h38.217l9.514-16.478H594.313l-9.6-16.62,9.6-16.62H613.5l9.6,16.62Z" transform="translate(-526.605 -27.532)" fill="#fff"/>
        <path id="Path_3" data-name="Path 3" d="M603.791,73.67l-9.6,16.62h19.191Z" transform="translate(-516.892 -23.344)" fill="#fff" opacity="0.5"/>
      </g>
      <g id="Group_5" data-name="Group 5" transform="translate(144.461 11.111)">
        <g id="Group_2" data-name="Group 2">
          <path id="Path_4" data-name="Path 4" d="M700.8,100.477v15.385H644.284V45.472H699.49V60.857h-35.5V72.723h31.272V87.6H663.995v12.873Z" transform="translate(-644.284 -44.064)" fill="#fff"/>
          <path id="Path_5" data-name="Path 5" d="M710.764,112.951a34.941,34.941,0,0,1-13.827-13.023,35.9,35.9,0,0,1-5.028-18.9,35.92,35.92,0,0,1,5.028-18.906A34.966,34.966,0,0,1,710.764,49.1a41.655,41.655,0,0,1,19.86-4.675,42.64,42.64,0,0,1,17.4,3.419A33.473,33.473,0,0,1,760.893,57.7L748.221,69.158q-6.838-8.244-16.592-8.244a20.492,20.492,0,0,0-10.206,2.514,17.446,17.446,0,0,0-6.938,7.089,21.823,21.823,0,0,0-2.464,10.509,21.81,21.81,0,0,0,2.464,10.508,17.433,17.433,0,0,0,6.938,7.09,20.478,20.478,0,0,0,10.206,2.514q9.754,0,16.592-8.247l12.672,11.465a33.473,33.473,0,0,1-12.871,9.855,42.662,42.662,0,0,1-17.4,3.418A41.655,41.655,0,0,1,710.764,112.951Z" transform="translate(-628.055 -44.422)" fill="#fff"/>
          <path id="Path_6" data-name="Path 6" d="M764.988,112.951a34.945,34.945,0,0,1-13.827-13.023,35.9,35.9,0,0,1-5.028-18.9,35.912,35.912,0,0,1,5.028-18.906A34.97,34.97,0,0,1,764.988,49.1a41.65,41.65,0,0,1,19.859-4.675,42.643,42.643,0,0,1,17.4,3.419,33.467,33.467,0,0,1,12.87,9.855l-12.67,11.462q-6.838-8.244-16.592-8.244a20.488,20.488,0,0,0-10.206,2.514,17.438,17.438,0,0,0-6.939,7.089,21.811,21.811,0,0,0-2.464,10.509,21.8,21.8,0,0,0,2.464,10.508,17.425,17.425,0,0,0,6.939,7.09,20.473,20.473,0,0,0,10.206,2.514q9.754,0,16.592-8.247l12.67,11.465a33.468,33.468,0,0,1-12.87,9.855,42.665,42.665,0,0,1-17.4,3.418A41.65,41.65,0,0,1,764.988,112.951Z" transform="translate(-609.577 -44.422)" fill="#fff"/>
        </g>
        <g id="Group_3" data-name="Group 3" transform="translate(3.973 96.564)">
          <path id="Path_7" data-name="Path 7" d="M660.7,124.987a2.626,2.626,0,0,1-.653,1.893,2.429,2.429,0,0,1-1.846.684h-5.836q-5.115,0-5.115-4.557v-2.749h1.783v2.749a2.483,2.483,0,0,0,.92,2.208,3.83,3.83,0,0,0,2.2.519h4.407a3.244,3.244,0,0,0,1.689-.307,1.854,1.854,0,0,0,.674-1.673v-3.5H660.7Zm-9.16-4.745v-1.783H653.3v1.783Zm3.056,0v-1.783h1.759v1.783Z" transform="translate(-647.247 -115.756)" fill="#fff"/>
          <path id="Path_8" data-name="Path 8" d="M666.165,125.358a2.36,2.36,0,0,1-.762,1.838,2.959,2.959,0,0,1-2.066.692h-4.816v-1.83h2.467l-2.027-7.409h1.893l2.011,7.409a1.476,1.476,0,0,0,1.1-.362,2.135,2.135,0,0,0,.448-1.539V117.51h1.753Z" transform="translate(-643.405 -116.079)" fill="#fff"/>
          <path id="Path_9" data-name="Path 9" d="M668.818,129.766v-1.429q1.673-.046,1.72-2.042a1.789,1.789,0,0,1-1.705.817,3.257,3.257,0,0,1-2.5-1.03,3.72,3.72,0,0,1-.959-2.639,3.67,3.67,0,0,1,.967-2.64,3.586,3.586,0,0,1,5.02.023,3.788,3.788,0,0,1,.951,2.664v3.393Q672.313,129.767,668.818,129.766ZM669.992,122a1.522,1.522,0,0,0-1.238-.568,1.363,1.363,0,0,0-1.135.589,2.294,2.294,0,0,0-.444,1.423,2.267,2.267,0,0,0,.468,1.449,1.486,1.486,0,0,0,2.357.023,2.153,2.153,0,0,0,.458-1.394A2.33,2.33,0,0,0,669.992,122Z" transform="translate(-641.069 -115.303)" fill="#fff"/>
          <path id="Path_10" data-name="Path 10" d="M674.42,127.888a2.447,2.447,0,0,1-2-.833,3.154,3.154,0,0,1-.644-2.1V117.51h1.791v6.724a1.837,1.837,0,0,0,.51,1.549,2.475,2.475,0,0,0,1.383.275h1.069v1.83Z" transform="translate(-638.886 -116.079)" fill="#fff"/>
          <path id="Path_11" data-name="Path 11" d="M684,128.251a6.185,6.185,0,0,1-3.583-.888,6.067,6.067,0,0,1-3.558.888h-1.98v-1.83h1.885a3.69,3.69,0,0,0,1.494-.181,3.851,3.851,0,0,1-1.187-1.478,4.048,4.048,0,0,1-.369-1.673,3.068,3.068,0,0,1,.188-1.116,3.907,3.907,0,0,1,1.394-1.814,3.646,3.646,0,0,1,2.149-.66,3.948,3.948,0,0,1,2.612.951,3.177,3.177,0,0,1,1.135,2.569,3.96,3.96,0,0,1-.385,1.7,3.8,3.8,0,0,1-1.179,1.516,3.568,3.568,0,0,0,1.5.181h1.673v1.83Zm-6.017-10.009v-1.8h1.775v1.8Zm4.493,4.682a2.107,2.107,0,0,0-3.591-1.4,2.018,2.018,0,0,0-.51,1.4,2.415,2.415,0,0,0,1.061,2.058,5.875,5.875,0,0,0,1,.6,7.049,7.049,0,0,0,.981-.6A2.39,2.39,0,0,0,682.477,122.924Zm-1.429-4.682v-1.8h1.767v1.8Z" transform="translate(-637.83 -116.443)" fill="#fff"/>
          <path id="Path_12" data-name="Path 12" d="M690.83,126.792a3.7,3.7,0,0,1-5.8,0h-2.459v-1.83h1.735c-.009-.121-.015-.3-.015-.535a3.687,3.687,0,0,1,1-2.655,3.491,3.491,0,0,1,2.624-1.046,3.36,3.36,0,0,1,2.608,1.077,3.837,3.837,0,0,1,1,2.687v.472h1.612v1.83Zm-1.6-3.778a1.65,1.65,0,0,0-1.366-.661,1.541,1.541,0,0,0-1.3.645,2.55,2.55,0,0,0,.083,2.911,1.624,1.624,0,0,0,1.319.609,1.522,1.522,0,0,0,1.284-.613,2.33,2.33,0,0,0,.417-1.431A2.4,2.4,0,0,0,689.235,123.013Z" transform="translate(-635.208 -114.983)" fill="#fff"/>
          <path id="Path_13" data-name="Path 13" d="M690.05,127.888v-1.83h1.674a1.1,1.1,0,0,0,1.077-.55,2.727,2.727,0,0,0,.2-1.227V117.51h1.783v6.677a3.111,3.111,0,0,1-.385,1.87h3.025v1.83Z" transform="translate(-632.661 -116.079)" fill="#fff"/>
          <path id="Path_14" data-name="Path 14" d="M697.1,127.888h-1.9v-1.83h1.531a1.137,1.137,0,0,0,1.14-.535A3.575,3.575,0,0,0,698,124.36v-6.85H699.8v7.463Q699.8,127.887,697.1,127.888Z" transform="translate(-630.906 -116.079)" fill="#fff"/>
          <path id="Path_15" data-name="Path 15" d="M711.726,128.394a5.392,5.392,0,0,1-3.927,1.579h-.11a5.414,5.414,0,0,1-3.944-1.579,5.244,5.244,0,0,1-1.594-3.919v-1.791h1.806v1.594a4.062,4.062,0,0,0,.967,2.844,3.523,3.523,0,0,0,2.813,1.132q3.512,0,3.794-3.747h-4.242a5.2,5.2,0,0,1,1.407-3.912,5.522,5.522,0,0,1,4.014-1.368V120.9a4.837,4.837,0,0,0-2.027.337,2.791,2.791,0,0,0-1.319,1.508h3.974v1.73A5.218,5.218,0,0,1,711.726,128.394Z" transform="translate(-628.538 -115.495)" fill="#fff"/>
          <path id="Path_16" data-name="Path 16" d="M711.613,127.107v-1.83h5.82q0-3.16-2.443-3.684a7.3,7.3,0,0,0-1.627-.15V119.8q1.227,0,1.673.031a3.981,3.981,0,0,1,.967.228q3.222,1.076,3.253,5.217v1.83Z" transform="translate(-625.313 -115.299)" fill="#fff"/>
          <path id="Path_17" data-name="Path 17" d="M721.184,127.888a2.445,2.445,0,0,1-2-.833,3.146,3.146,0,0,1-.645-2.1V117.51h1.791v6.724a1.837,1.837,0,0,0,.511,1.549,2.47,2.47,0,0,0,1.382.275H723.3v1.83Z" transform="translate(-622.951 -116.079)" fill="#fff"/>
          <path id="Path_18" data-name="Path 18" d="M721.333,127.115v-1.83h1.8q1.368,0,1.368-1.9v-2.8h1.806v2.231a8.523,8.523,0,0,1,2.357-2.251,4.888,4.888,0,0,1,2.585-.79q4.069,0,4.148,5.508h1.9v1.83Zm12.225-2.349a4.052,4.052,0,0,0-.676-2.471,2.151,2.151,0,0,0-1.816-.908,4.123,4.123,0,0,0-2.648,1.1,7.625,7.625,0,0,0-2.066,2.8h7.173Z" transform="translate(-622.001 -115.307)" fill="#fff"/>
          <path id="Path_19" data-name="Path 19" d="M732.853,119.142v-1.791h1.767v1.791Zm.094,8.8v-1.83h1.673a1.1,1.1,0,0,0,1.077-.55,2.724,2.724,0,0,0,.2-1.227v-3.7h1.785v3.605a3.108,3.108,0,0,1-.386,1.87h3.088v1.83Zm2.962-8.8v-1.791h1.768v1.791Z" transform="translate(-618.075 -116.134)" fill="#fff"/>
          <path id="Path_20" data-name="Path 20" d="M743.86,127.95h-5.728v-1.83h2.561a4.092,4.092,0,0,1-.462-1.917,3.676,3.676,0,0,1,1.012-2.679,3.5,3.5,0,0,1,2.617-1.038,3.4,3.4,0,0,1,2.592,1.077,3.766,3.766,0,0,1,1.014,2.687,3.692,3.692,0,0,1-1,2.656A3.445,3.445,0,0,1,743.86,127.95Zm-2.412-8.83v-1.791H743.2v1.791Zm3.664,3.609a1.643,1.643,0,0,0-1.315-.6,1.553,1.553,0,0,0-1.246.562,2.509,2.509,0,0,0,.039,2.99,1.637,1.637,0,0,0,1.309.613,1.546,1.546,0,0,0,1.246-.57,2.226,2.226,0,0,0,.475-1.474A2.277,2.277,0,0,0,745.112,122.729Zm-.609-3.609v-1.791h1.76v1.791Z" transform="translate(-616.276 -116.141)" fill="#fff"/>
          <path id="Path_21" data-name="Path 21" d="M753.974,125.358a2.36,2.36,0,0,1-.763,1.838,2.956,2.956,0,0,1-2.066.692h-4.816v-1.83H748.8l-2.026-7.409h1.893l2.011,7.409a1.478,1.478,0,0,0,1.1-.362,2.137,2.137,0,0,0,.448-1.539V117.51h1.752Zm-7.542,5.83v-.739h.643a3.142,3.142,0,0,1-.149-.566,1.326,1.326,0,0,1,.369-.951,1.188,1.188,0,0,1,.888-.385,1.085,1.085,0,0,1,1.014.739l-.582.275a.4.4,0,0,0-.447-.354.489.489,0,0,0-.4.185.759.759,0,0,0,.137,1.057h1.3v.739Z" transform="translate(-613.483 -116.079)" fill="#fff"/>
          <path id="Path_22" data-name="Path 22" d="M753.29,127.892V117.5h1.791v10.394Z" transform="translate(-611.111 -116.083)" fill="#fff"/>
          <path id="Path_23" data-name="Path 23" d="M762.187,127.938a2.827,2.827,0,0,1-1.242,1.979,4.734,4.734,0,0,1-2.687.692v-1.547a2,2,0,0,0,2.239-2.278v-6.151h1.8v5.476h2.765v1.83Zm-1.673-8.783v-1.791h1.767v1.791Z" transform="translate(-609.417 -116.129)" fill="#fff"/>
          <path id="Path_24" data-name="Path 24" d="M773.627,127.888H762.865v-1.83H771.7a3.9,3.9,0,0,0-.871-2.561,3.413,3.413,0,0,0-2.781-1.227h-3.717l3.167-4.76h2.136l-2.168,3.072h.786a5.279,5.279,0,0,1,3.088.888q2.287,1.508,2.286,5.295Z" transform="translate(-607.848 -116.079)" fill="#fff"/>
          <path id="Path_25" data-name="Path 25" d="M775.71,127.107a2.822,2.822,0,0,1-1.241,1.979,4.726,4.726,0,0,1-2.686.692V128.23a2,2,0,0,0,2.238-2.278V119.8h1.8v5.476h2.766v1.83Z" transform="translate(-604.809 -115.299)" fill="#fff"/>
          <path id="Path_26" data-name="Path 26" d="M784.632,126.792a3.7,3.7,0,0,1-5.8,0h-2.459v-1.83h1.736q-.016-.181-.016-.535a3.688,3.688,0,0,1,1-2.655,3.492,3.492,0,0,1,2.624-1.046,3.361,3.361,0,0,1,2.608,1.077,3.837,3.837,0,0,1,1,2.687v.472h1.61v1.83Zm-1.594-3.778a1.652,1.652,0,0,0-1.366-.661,1.539,1.539,0,0,0-1.3.645,2.546,2.546,0,0,0,.082,2.911,1.626,1.626,0,0,0,1.321.609,1.523,1.523,0,0,0,1.284-.613,2.329,2.329,0,0,0,.416-1.431A2.4,2.4,0,0,0,783.038,123.013Z" transform="translate(-603.244 -114.983)" fill="#fff"/>
          <path id="Path_27" data-name="Path 27" d="M785.73,127.888h-1.9v-1.83h1.532a1.138,1.138,0,0,0,1.14-.535,3.571,3.571,0,0,0,.125-1.162v-6.85h1.808v7.463Q788.433,127.887,785.73,127.888Z" transform="translate(-600.704 -116.079)" fill="#fff"/>
          <path id="Path_28" data-name="Path 28" d="M788.493,127.892V117.5h1.791v10.394Z" transform="translate(-599.115 -116.083)" fill="#fff"/>
        </g>
        <g id="Group_4" data-name="Group 4" transform="translate(2.204 85.892)">
          <path id="Path_29" data-name="Path 29" d="M651.559,114.9v1.169h-5.631v-7.508h5.48v1.169h-4.085v1.952h3.626v1.148h-3.626v2.07Z" transform="translate(-645.928 -108.457)" fill="#fff"/>
          <path id="Path_30" data-name="Path 30" d="M652.822,115.708a3.664,3.664,0,0,1-1.437-1.378,4.028,4.028,0,0,1,.005-3.969,3.712,3.712,0,0,1,1.441-1.378,4.231,4.231,0,0,1,2.056-.5,4.278,4.278,0,0,1,1.683.322,3.428,3.428,0,0,1,1.287.933l-.9.847a2.63,2.63,0,0,0-2.007-.88,2.809,2.809,0,0,0-1.383.338,2.439,2.439,0,0,0-.956.939,2.875,2.875,0,0,0,0,2.724,2.439,2.439,0,0,0,.956.939,2.809,2.809,0,0,0,1.383.338,2.613,2.613,0,0,0,2.007-.89l.9.858a3.422,3.422,0,0,1-1.291.933,4.332,4.332,0,0,1-1.689.322A4.225,4.225,0,0,1,652.822,115.708Z" transform="translate(-644.246 -108.484)" fill="#fff"/>
          <path id="Path_31" data-name="Path 31" d="M658.534,115.708a3.689,3.689,0,0,1-1.448-1.384,3.99,3.99,0,0,1,0-3.958,3.689,3.689,0,0,1,1.448-1.384,4.546,4.546,0,0,1,4.14,0,3.714,3.714,0,0,1,1.449,1.378,4.017,4.017,0,0,1,0,3.969,3.715,3.715,0,0,1-1.449,1.378,4.546,4.546,0,0,1-4.14,0Zm3.422-1.062a2.446,2.446,0,0,0,.944-.944,2.853,2.853,0,0,0,0-2.714,2.446,2.446,0,0,0-.944-.944,2.872,2.872,0,0,0-2.7,0,2.437,2.437,0,0,0-.944.944,2.854,2.854,0,0,0,0,2.714,2.437,2.437,0,0,0,.944.944,2.872,2.872,0,0,0,2.7,0Z" transform="translate(-642.305 -108.484)" fill="#fff"/>
          <path id="Path_32" data-name="Path 32" d="M670.366,108.564v7.508H669.22l-4.14-5.084v5.084H663.7v-7.508h1.148l4.141,5.084v-5.084Z" transform="translate(-639.873 -108.457)" fill="#fff"/>
          <path id="Path_33" data-name="Path 33" d="M671.75,115.708a3.687,3.687,0,0,1-1.448-1.384,3.989,3.989,0,0,1,0-3.958,3.687,3.687,0,0,1,1.448-1.384,4.545,4.545,0,0,1,4.14,0,3.7,3.7,0,0,1,1.448,1.378,4.009,4.009,0,0,1,0,3.969,3.7,3.7,0,0,1-1.448,1.378,4.545,4.545,0,0,1-4.14,0Zm3.422-1.062a2.446,2.446,0,0,0,.944-.944,2.853,2.853,0,0,0,0-2.714,2.446,2.446,0,0,0-.944-.944,2.872,2.872,0,0,0-2.7,0,2.448,2.448,0,0,0-.944.944,2.863,2.863,0,0,0,0,2.714,2.448,2.448,0,0,0,.944.944,2.872,2.872,0,0,0,2.7,0Z" transform="translate(-637.801 -108.484)" fill="#fff"/>
          <path id="Path_34" data-name="Path 34" d="M683.81,116.072,683.8,111.1l-2.467,4.119h-.622l-2.466-4.054v4.913h-1.332v-7.508h1.149l2.98,4.977,2.928-4.977h1.149l.009,7.508Z" transform="translate(-635.369 -108.457)" fill="#fff"/>
          <path id="Path_35" data-name="Path 35" d="M684.552,108.564h1.394v7.508h-1.394Z" transform="translate(-632.766 -108.457)" fill="#fff"/>
          <path id="Path_36" data-name="Path 36" d="M688.66,115.708a3.689,3.689,0,0,1-1.436-1.378,4.017,4.017,0,0,1,.005-3.969,3.716,3.716,0,0,1,1.443-1.378,4.228,4.228,0,0,1,2.053-.5,4.291,4.291,0,0,1,1.685.322,3.436,3.436,0,0,1,1.287.933l-.9.847a2.63,2.63,0,0,0-2.006-.88,2.809,2.809,0,0,0-1.384.338,2.425,2.425,0,0,0-.955.939,2.875,2.875,0,0,0,0,2.724,2.425,2.425,0,0,0,.955.939,2.809,2.809,0,0,0,1.384.338,2.613,2.613,0,0,0,2.006-.89l.9.858a3.419,3.419,0,0,1-1.294.933,4.309,4.309,0,0,1-1.688.322A4.232,4.232,0,0,1,688.66,115.708Z" transform="translate(-632.033 -108.484)" fill="#fff"/>
          <path id="Path_37" data-name="Path 37" d="M696.685,115.708a3.677,3.677,0,0,1-1.436-1.378,4.022,4.022,0,0,1,0-3.969,3.719,3.719,0,0,1,1.444-1.378,4.224,4.224,0,0,1,2.053-.5,4.29,4.29,0,0,1,1.685.322,3.448,3.448,0,0,1,1.287.933l-.9.847a2.632,2.632,0,0,0-2.006-.88,2.813,2.813,0,0,0-1.385.338,2.424,2.424,0,0,0-.953.939,2.875,2.875,0,0,0,0,2.724,2.424,2.424,0,0,0,.953.939,2.813,2.813,0,0,0,1.385.338,2.615,2.615,0,0,0,2.006-.89l.9.858a3.429,3.429,0,0,1-1.294.933,4.32,4.32,0,0,1-1.689.322A4.229,4.229,0,0,1,696.685,115.708Z" transform="translate(-629.299 -108.484)" fill="#fff"/>
          <path id="Path_38" data-name="Path 38" d="M706.575,114.9v1.169h-5.631v-7.508h5.481v1.169h-4.087v1.952h3.626v1.148h-3.626v2.07Z" transform="translate(-627.18 -108.457)" fill="#fff"/>
          <path id="Path_39" data-name="Path 39" d="M712.975,108.564v7.508h-1.148l-4.14-5.084v5.084H706.3v-7.508h1.148l4.14,5.084v-5.084Z" transform="translate(-625.354 -108.457)" fill="#fff"/>
          <path id="Path_40" data-name="Path 40" d="M714.551,109.744h-2.487v-1.18h6.371v1.18h-2.49v6.328h-1.394Z" transform="translate(-623.391 -108.457)" fill="#fff"/>
          <path id="Path_41" data-name="Path 41" d="M723.23,114.9v1.169H717.6v-7.508h5.481v1.169h-4.087v1.952h3.626v1.148h-3.626v2.07Z" transform="translate(-621.505 -108.457)" fill="#fff"/>
          <path id="Path_42" data-name="Path 42" d="M727.872,116.072l-1.532-2.2c-.066.007-.161.011-.291.011h-1.695v2.188h-1.395v-7.508h3.089a4.17,4.17,0,0,1,1.7.322,2.483,2.483,0,0,1,1.11.922,2.591,2.591,0,0,1,.386,1.427,2.547,2.547,0,0,1-.415,1.459,2.45,2.45,0,0,1-1.185.912l1.727,2.467Zm-.5-5.942a2.14,2.14,0,0,0-1.383-.386h-1.63v2.993h1.63a2.117,2.117,0,0,0,1.383-.392,1.361,1.361,0,0,0,.472-1.11A1.345,1.345,0,0,0,727.367,110.13Z" transform="translate(-619.678 -108.457)" fill="#fff"/>
          <path id="Path_43" data-name="Path 43" d="M732.573,115.708a3.682,3.682,0,0,1-1.437-1.378,4.025,4.025,0,0,1,.005-3.969,3.714,3.714,0,0,1,1.443-1.378,4.229,4.229,0,0,1,2.054-.5,4.284,4.284,0,0,1,1.684.322,3.438,3.438,0,0,1,1.287.933l-.9.847a2.63,2.63,0,0,0-2.006-.88,2.813,2.813,0,0,0-1.384.338,2.423,2.423,0,0,0-.955.939,2.875,2.875,0,0,0,0,2.724,2.423,2.423,0,0,0,.955.939,2.813,2.813,0,0,0,1.384.338,2.613,2.613,0,0,0,2.006-.89l.9.858a3.426,3.426,0,0,1-1.293.933,4.321,4.321,0,0,1-1.689.322A4.226,4.226,0,0,1,732.573,115.708Z" transform="translate(-617.069 -108.484)" fill="#fff"/>
          <path id="Path_44" data-name="Path 44" d="M738.286,115.708a3.691,3.691,0,0,1-1.449-1.384,3.987,3.987,0,0,1,0-3.958,3.69,3.69,0,0,1,1.449-1.384,4.543,4.543,0,0,1,4.139,0,3.7,3.7,0,0,1,1.448,1.378,4.01,4.01,0,0,1,0,3.969,3.7,3.7,0,0,1-1.448,1.378,4.543,4.543,0,0,1-4.139,0Zm3.421-1.062a2.449,2.449,0,0,0,.944-.944,2.855,2.855,0,0,0,0-2.714,2.449,2.449,0,0,0-.944-.944,2.869,2.869,0,0,0-2.7,0,2.427,2.427,0,0,0-.944.944,2.853,2.853,0,0,0,0,2.714,2.427,2.427,0,0,0,.944.944,2.869,2.869,0,0,0,2.7,0Z" transform="translate(-615.128 -108.484)" fill="#fff"/>
          <path id="Path_45" data-name="Path 45" d="M750.117,108.564v7.508h-1.146l-4.14-5.084v5.084h-1.384v-7.508h1.148l4.14,5.084v-5.084Z" transform="translate(-612.697 -108.457)" fill="#fff"/>
          <path id="Path_46" data-name="Path 46" d="M751.7,109.744h-2.489v-1.18h6.371v1.18H753.09v6.328H751.7Z" transform="translate(-610.734 -108.457)" fill="#fff"/>
          <path id="Path_47" data-name="Path 47" d="M759.656,116.072l-1.534-2.2c-.066.007-.161.011-.291.011h-1.694v2.188h-1.4v-7.508h3.089a4.165,4.165,0,0,1,1.7.322,2.477,2.477,0,0,1,1.11.922,2.592,2.592,0,0,1,.386,1.427,2.548,2.548,0,0,1-.414,1.459,2.454,2.454,0,0,1-1.184.912l1.727,2.467Zm-.5-5.942a2.148,2.148,0,0,0-1.385-.386h-1.629v2.993h1.629a2.124,2.124,0,0,0,1.385-.392,1.364,1.364,0,0,0,.471-1.11A1.348,1.348,0,0,0,759.152,110.13Z" transform="translate(-608.847 -108.457)" fill="#fff"/>
          <path id="Path_48" data-name="Path 48" d="M765.731,114.335h-3.754l-.74,1.738H759.8l3.38-7.508h1.372l3.39,7.508h-1.457Zm-.461-1.094-1.415-3.282-1.406,3.282Z" transform="translate(-607.124 -108.457)" fill="#fff"/>
          <path id="Path_49" data-name="Path 49" d="M768.06,115.708a3.681,3.681,0,0,1-1.436-1.378,4.022,4.022,0,0,1,0-3.969,3.72,3.72,0,0,1,1.444-1.378,4.224,4.224,0,0,1,2.053-.5,4.291,4.291,0,0,1,1.685.322,3.449,3.449,0,0,1,1.287.933l-.9.847a2.632,2.632,0,0,0-2.006-.88,2.814,2.814,0,0,0-1.385.338,2.422,2.422,0,0,0-.953.939,2.875,2.875,0,0,0,0,2.724,2.422,2.422,0,0,0,.953.939,2.814,2.814,0,0,0,1.385.338,2.615,2.615,0,0,0,2.006-.89l.9.858a3.429,3.429,0,0,1-1.294.933,4.321,4.321,0,0,1-1.689.322A4.23,4.23,0,0,1,768.06,115.708Z" transform="translate(-604.976 -108.484)" fill="#fff"/>
          <path id="Path_50" data-name="Path 50" d="M774.022,109.744h-2.488v-1.18h6.371v1.18h-2.488v6.328h-1.394Z" transform="translate(-603.125 -108.457)" fill="#fff"/>
          <path id="Path_51" data-name="Path 51" d="M777.071,108.564h1.395v7.508h-1.395Z" transform="translate(-601.238 -108.457)" fill="#fff"/>
          <path id="Path_52" data-name="Path 52" d="M786.294,108.564v7.508h-1.148l-4.139-5.084v5.084h-1.385v-7.508h1.149l4.14,5.084v-5.084Z" transform="translate(-600.369 -108.457)" fill="#fff"/>
          <path id="Path_53" data-name="Path 53" d="M791.367,112.26h1.318v2.993a4.2,4.2,0,0,1-1.35.708,5.174,5.174,0,0,1-1.588.247,4.278,4.278,0,0,1-2.07-.5,3.7,3.7,0,0,1-1.448-1.378,4,4,0,0,1,0-3.969,3.691,3.691,0,0,1,1.453-1.378,4.335,4.335,0,0,1,2.086-.5,4.548,4.548,0,0,1,1.716.311,3.364,3.364,0,0,1,1.3.912l-.881.858a2.816,2.816,0,0,0-2.069-.858,2.926,2.926,0,0,0-1.411.333,2.415,2.415,0,0,0-.966.933,2.677,2.677,0,0,0-.349,1.373,2.636,2.636,0,0,0,.349,1.351,2.5,2.5,0,0,0,.966.944,2.834,2.834,0,0,0,1.4.343,3.022,3.022,0,0,0,1.545-.386Z" transform="translate(-598.297 -108.484)" fill="#fff"/>
        </g>
      </g>
    </g>
  </g>
</svg>
